<?xml version="1.0" encoding="utf-8"?>
<!-- Generator: Adobe Illustrator 22.0.0, SVG Export Plug-In . SVG Version: 6.00 Build 0)  -->
<svg version="1.1" xmlns="http://www.w3.org/2000/svg" xmlns:xlink="http://www.w3.org/1999/xlink" x="0px" y="0px"
	 viewBox="0 0 272 206" style="enable-background:new 0 0 272 206;" xml:space="preserve">
<style type="text/css">
	.st0{fill:#73B6E5;}
	.st1{fill:#63352F;}
	.st2{fill:#844A42;}
	.st3{fill:#B06156;}
	.st4{fill:#1D5F84;}
	.st5{fill:#044663;}
	.st6{fill:#298DBA;}
</style>
<g id="Background">
</g>
<g id="Objects">
	<g>
		<path class="st0" d="M183.6,170.2c52,0,94.4,42.3,94.4,94.4c0,4.7,3.8,8.6,8.6,8.6c4.7,0,8.6-3.8,8.6-8.6
			c0-61.5-50-111.5-111.5-111.5h-22.9v17.2H183.6z"/>
		<path class="st0" d="M80.7,162.8c-31.2,0-59.3,13.9-78.4,35.8l-10.4,2.9v11.4c-9.5,15.7-15,34.1-15,53.7c0,21.2,6.4,41.6,18.4,59
			l14.1-9.8C-0.7,301.3-6,284.3-6,266.6c0-13.2,3-25.7,8.3-36.9l9.1-3.6c0,0,0-11.4,1.4-13.2c15.9-20,40.4-32.9,67.9-32.9h22.9
			v-17.2L80.7,162.8L80.7,162.8z"/>
		<g>
			<path class="st1" d="M132.1,0c-4.7,0-8.6,3.8-8.6,8.6v22.9h17.2V8.6C140.7,3.8,136.9,0,132.1,0z"/>
			<path class="st1" d="M99.2,8.7c-4.1,2.4-5.5,7.6-3.1,11.7l11.4,19.8l14.9-8.6l-11.4-19.8C108.6,7.8,103.3,6.4,99.2,8.7z"/>
			<path class="st1" d="M75.1,32.8c-2.4,4.1-1,9.3,3.1,11.7L98,55.9l8.6-14.9L86.8,29.6C82.7,27.3,77.5,28.7,75.1,32.8z"/>
			<path class="st1" d="M66.2,65.6c0,4.7,3.8,8.6,8.6,8.6h22.9V57H74.8C70,57,66.2,60.9,66.2,65.6z"/>
			<path class="st1" d="M197.7,65.9c0-4.7-3.8-8.6-8.6-8.6h-22.9v17.2h22.9C193.9,74.5,197.7,70.7,197.7,65.9z"/>
			<path class="st1" d="M189,33c-2.4-4.1-7.6-5.5-11.7-3.1l-19.8,11.4l8.6,14.9l19.8-11.4C190,42.4,191.4,37.1,189,33z"/>
			<path class="st1" d="M165,8.9c-4.1-2.4-9.3-1-11.7,3.1l-11.4,19.8l14.9,8.6l11.4-19.8C170.5,16.5,169.1,11.3,165,8.9z"/>
		</g>
		<path class="st2" d="M132.1,14.3v102.9c28.4,0,51.5-23,51.5-51.5S160.5,14.3,132.1,14.3z"/>
		<path class="st3" d="M149.3,65.8c0-28.4-7.7-51.5-17.2-51.5c-28.4,0-51.5,23-51.5,51.5s23,51.5,51.5,51.5
			C141.6,117.2,149.3,94.2,149.3,65.8z"/>
		<path class="st6" d="M160.7,139.9h-34.3l22.9,137.3h34.3V162.8C183.6,150.2,173.4,139.9,160.7,139.9z"/>
		<path class="st0" d="M126.4,139.9h-22.9c-12.6,0-22.9,10.2-22.9,22.9v114.4h68.6V162.8C149.3,150.2,139,139.9,126.4,139.9z"/>
		<path class="st6" d="M132.1,251.4c-4.7,0-8.6-3.8-8.6-8.6V139.9c0-4.7,3.8-8.6,8.6-8.6c4.7,0,8.6,3.8,8.6,8.6v102.9
			C140.7,247.6,136.9,251.4,132.1,251.4z"/>
	</g>
</g>
</svg>
