<?xml version="1.0" encoding="utf-8"?>
<!-- Generator: Adobe Illustrator 22.0.0, SVG Export Plug-In . SVG Version: 6.00 Build 0)  -->
<svg version="1.1" xmlns="http://www.w3.org/2000/svg" xmlns:xlink="http://www.w3.org/1999/xlink" x="0px" y="0px"
	 viewBox="0 0 183 147.4" style="enable-background:new 0 0 183 147.4;" xml:space="preserve">
<style type="text/css">
	.st0{fill:#FFFFFF;}
</style>
<g id="Layer_2">
</g>
<g id="Layer_1">
	<g>
		<path class="st0" d="M125.6,26h1.8c1,5.8,5.9,10.4,12,10.4c6.1,0,10.9-4.5,12-10.3h1.8c1.1,0,2.1-0.9,2.1-2.1
			c0-1.1-0.9-2.1-2.1-2.1h-1.8c-0.1-0.8-0.2-1.5-0.4-2.2l1.4-0.8c1-0.6,1.3-1.8,0.8-2.8c-0.6-1-1.8-1.3-2.8-0.8l-1.5,0.8
			c-0.5-0.6-1-1.1-1.6-1.6l0.9-1.5c0.6-1,0.2-2.2-0.8-2.8c-1-0.6-2.2-0.2-2.8,0.8l-0.8,1.4c-0.7-0.3-1.5-0.3-2.2-0.4v-1.8
			c0-1.1-0.9-2.1-2.1-2.1c-1.1,0-2.1,0.9-2.1,2.1V12c-0.7,0.1-1.5,0.2-2.2,0.4l-0.8-1.4c-0.6-1-1.8-1.3-2.8-0.8
			c-1,0.6-1.3,1.8-0.8,2.8l0.9,1.5c-0.6,0.5-1.1,1-1.6,1.6l-1.5-0.9c-1-0.6-2.2-0.2-2.8,0.8c-0.6,1-0.2,2.2,0.8,2.8l1.4,0.8
			c-0.3,0.7-0.3,1.4-0.4,2.2h-1.8c-1.1,0-2.1,0.9-2.1,2.1C123.5,25.1,124.5,26,125.6,26z"/>
		<path class="st0" d="M151.8,77.6V54.3c14.8,0,26.8-12,26.8-26.8c0-1.1-0.9-2.1-2.1-2.1c-1.1,0-2.1,0.9-2.1,2.1
			c0,12.5-10.2,22.7-22.7,22.7c0-3-2.5-5.5-5.5-5.5h-4.8c0-1.1-0.9-2.1-2.1-2.1c-1.1,0-2.1,0.9-2.1,2.1h-4.8c-3,0-5.5,2.5-5.5,5.5v0
			c-7.5,0-14.3,3.3-18.8,8.6l-2.5,0.7v2.8c-2.3,3.8-3.6,8.2-3.6,12.9c0,5.1,1.5,10,4.4,14.2l3-2c0,1.6-0.4,3.1-1,4.5
			c0.4,0.8,0.8,1.5,1.3,2.1c1.2-2,1.9-4.3,1.9-6.8c0-2.7-0.8-5.2-2.3-7.4c-0.2-0.3-0.5-0.5-0.9-0.5c-0.2,0-0.4,0.1-0.6,0.2
			c-0.5,0.3-0.6,1-0.3,1.5c1,1.4,1.5,3.1,1.7,4.7c-1.9-3.2-3.1-6.8-3.1-10.6c0-3.2,0.7-6.2,2-8.9l2.2-0.9c0,0,0-2.8,0.3-3.2
			c3.8-4.8,9.7-7.9,16.3-7.9v23.4c0,2,0.6,3.8,1.4,5.4l2.8,48.7l-6.8,2.3c-1.1,0.4-1.7,1.5-1.3,2.6c0.3,0.9,1.1,1.4,2,1.4
			c0.2,0,0.4,0,0.7-0.1l8.3-2.8c0.9-0.3,1.5-1.1,1.4-2.1l-2.6-45.3c1.9,1.3,4.1,2.2,6.6,2.2s4.7-0.9,6.6-2.2l-2.6,45.2
			c-0.1,0.9,0.5,1.8,1.4,2.1l8.3,2.8c0.2,0.1,0.4,0.1,0.7,0.1c0.9,0,1.7-0.5,2-1.4c0.4-1.1-0.2-2.2-1.3-2.6l-6.8-2.3l2.8-48.7
			C151.2,81.4,151.8,79.6,151.8,77.6z"/>
		<path class="st0" d="M56,54.4c6.6,0,12.5,3.1,16.3,7.9c0.7-1.2,1.6-2.4,2.5-3.4c-4.6-5.3-11.3-8.6-18.8-8.6h0c0-3-2.5-5.5-5.5-5.5
			l-4.8,0.1c0-1.1-0.9-2-2-2c-1.1,0-1.9,0.8-2,1.9h-4.9c-3,0-5.5,2.5-5.5,5.5c-12.5,0-22.7-10.2-22.7-22.7c0-1.1-0.9-2.1-2.1-2.1
			c-1.1,0-2.1,0.9-2.1,2.1c0,14.8,12,26.8,26.8,26.8v20.6c-2.6,2.9-4.1,6.7-4.1,10.9v13.8h6.6l1.7,28.7l-7.2,6c-0.9,0.7-1,2-0.3,2.9
			c0.4,0.5,1,0.7,1.6,0.7c0.5,0,0.9-0.2,1.3-0.5l4.9-4.1l0.2,2.6c0.1,1.1,1,1.9,2.1,1.9c0,0,0.1,0,0.1,0c1.1-0.1,2-1,1.9-2.2
			l-2.1-36.2h11.8L47.5,136c-0.1,1.1,0.8,2.1,1.9,2.2c0,0,0.1,0,0.1,0c1.1,0,2-0.8,2.1-1.9l0.2-2.6l4.9,4.1c0.4,0.3,0.9,0.5,1.3,0.5
			c0.6,0,1.2-0.3,1.6-0.7c0.7-0.9,0.6-2.2-0.3-2.9l-7.2-6l1.7-28.7h6.3V86c0-4.2-1.6-8-4.1-10.9L56,54.4L56,54.4z"/>
		<path class="st0" d="M25.7,36.5h18l0,0c0.1,0,0.1,0,0.2,0H56h5.5c3,0,5.5-2.5,5.5-5.5c0-2-1.1-3.8-2.8-4.8v-2.1
			c0-11.4-9.3-20.6-20.6-20.6c-11.4,0-20.6,9.3-20.6,20.6v2.1c-1.6,1-2.8,2.7-2.8,4.8C20.2,34.1,22.7,36.5,25.7,36.5z"/>
		<path class="st0" d="M84,83.3c0,0.3-0.2,0.5-0.2,0.8c0,3.6,2.9,6.5,6.5,6.5c3.6,0,6.5-2.9,6.5-6.5c0-0.3-0.1-0.5-0.2-0.8h0.9
			c0.6,0,1.1-0.5,1.1-1.1s-0.5-1.1-1.1-1.1H96c-0.1-0.3-0.3-0.5-0.5-0.7l1.5-0.9c0.5-0.3,0.7-1,0.4-1.5c-0.3-0.5-1-0.7-1.5-0.4
			l-2,1.2c-0.1-0.1-0.2-0.2-0.3-0.2l1.2-2.1c0.3-0.5,0.1-1.2-0.4-1.5c-0.5-0.3-1.2-0.1-1.5,0.4l-1.4,2.4c-0.1,0-0.1,0-0.2,0V75
			c0-0.6-0.5-1.1-1.1-1.1s-1.1,0.5-1.1,1.1v2.8c-0.1,0-0.1,0-0.2,0l-1.4-2.4c-0.3-0.5-1-0.7-1.5-0.4c-0.5,0.3-0.7,1-0.4,1.5l1.2,2.1
			c-0.1,0.1-0.2,0.1-0.3,0.2l-2.1-1.2c-0.5-0.3-1.2-0.1-1.5,0.4c-0.3,0.5-0.1,1.2,0.4,1.5l1.6,0.9c-0.2,0.2-0.3,0.4-0.5,0.7h-1.6
			c-0.6,0-1.1,0.5-1.1,1.1c0,0.6,0.5,1.1,1.1,1.1H84z"/>
		<path class="st0" d="M74,90.1c0.3,0.1,0.5,0.2,0.8,0.2c0.7,0,1.3-0.3,1.7-0.9c2.9-4.2,4.4-9.1,4.4-14.2c0-4.7-1.3-9.1-3.6-12.9
			c-1,1.2-1.8,2.6-2.5,4c1.3,2.7,2,5.7,2,8.9c0,4-1.2,7.7-3.3,11.1c0.1-1.9,0.7-3.8,1.8-5.4c0.3-0.5,0.2-1.2-0.3-1.5
			c-0.2-0.1-0.4-0.2-0.6-0.2c-0.3,0-0.7,0.2-0.9,0.5c-1.5,2.2-2.3,4.8-2.3,7.4c0,2.5,0.7,4.8,1.9,6.8c0.5-0.6,1-1.4,1.3-2.1
			C74.2,91.3,74.2,90.6,74,90.1z"/>
		<path class="st0" d="M107.1,93.9c-1.9,2.4-4.9,4-8.2,4.1v-2.6c0-1.6-1.3-2.9-2.9-2.9H83.7c-1.6,0-2.9,1.3-2.9,2.9v1.8
			c-2-0.7-3.8-1.7-5.1-3.3c-0.4,0.6-0.8,1.2-1.3,1.8c1.6,1.9,3.9,3,6.4,3.7v13.1c0,0.9,0.4,1.6,1,2.1c0,0.3-0.1,0.5-0.1,0.8v7.2h3.2
			l1,17.8l-3.5,1.2c-0.6,0.2-0.9,0.8-0.7,1.4c0.2,0.5,0.6,0.7,1,0.7c0.1,0,0.2,0,0.3-0.1l4.3-1.4c0.5-0.2,0.8-0.6,0.7-1.1L87,122.7
			h6.3l-1.1,18.5c0,0.5,0.3,0.9,0.7,1.1l4.3,1.4c0.1,0,0.2,0.1,0.3,0.1c0.5,0,0.9-0.3,1-0.7c0.2-0.6-0.1-1.2-0.7-1.4l-3.5-1.2
			l1-17.8h3.4v-7.2c0-0.7-0.2-1.4-0.4-2c0.1-0.3,0.4-0.6,0.4-0.9v-12.4c3.8-0.1,7.2-1.8,9.5-4.4C107.9,95.1,107.5,94.5,107.1,93.9z"
			/>
	</g>
</g>
</svg>
