<?xml version="1.0" encoding="utf-8"?>
<!-- Generator: Adobe Illustrator 22.0.0, SVG Export Plug-In . SVG Version: 6.00 Build 0)  -->
<svg version="1.1" xmlns="http://www.w3.org/2000/svg" xmlns:xlink="http://www.w3.org/1999/xlink" x="0px" y="0px"
	 viewBox="0 0 7.5 6.7" style="enable-background:new 0 0 7.5 6.7;" xml:space="preserve">
<style type="text/css">
	.st0{display:none;}
	.st1{display:inline;}
	.st2{fill:none;stroke:#FFFFFF;stroke-linecap:round;stroke-miterlimit:10;}
	.st3{fill:#FFFFFF;}
	.st4{fill:none;stroke:#FFFFFF;stroke-width:0.5;stroke-linecap:round;stroke-miterlimit:10;}
	.st5{fill:url(#SVGID_1_);}
	.st6{fill:#288DBA;}
	.st7{fill:#834B43;}
	.st8{fill:#76B5E4;}
	.st9{fill:#643630;}
	.st10{fill:#B16157;}
	.st11{fill:#206084;}
	.st12{fill:#064764;}
	.st13{fill:#F59D2D;}
	.st14{fill:#F5AB47;}
	.st15{fill:#FCCE95;}
	.st16{fill:#9CC324;}
	.st17{fill:#C1AB92;}
	.st18{fill:#FEE9AC;}
	.st19{fill:#EF795A;}
	.st20{fill:#79C9DE;}
	.st21{fill:#E73B56;}
	.st22{fill:#73B7E6;}
	.st23{fill:#854A43;}
	.st24{fill:#B26256;}
	.st25{fill:#1E6085;}
	.st26{fill:#2B8FBB;}
	.st27{fill:#D3E9E2;}
	.st28{fill:#ABD7C8;}
	.st29{fill:#020203;}
	.st30{fill:#2B2517;}
	.st31{fill:#7FC5A9;}
	.st32{fill:#FFE39D;}
	.st33{fill:#EE819B;}
	.st34{fill:#FFD764;}
	.st35{fill:#C69A4A;}
	.st36{fill:#E8C885;}
	.st37{fill:#85463F;}
	.st38{fill:#A36144;}
	.st39{fill:#40221E;}
	.st40{fill:#60322D;}
	.st41{fill:#CCC9C9;}
	.st42{fill:#E9E8E8;}
	.st43{fill:#BF7545;}
	.st44{fill:#DF8D4B;}
	.st45{fill:#E86440;}
	.st46{fill:#F0814C;}
	.st47{fill:#DAEDF9;}
	.st48{fill:#FAC963;}
	.st49{fill:#B3B3B0;}
	.st50{fill:#36A8E0;}
	.st51{fill:#5EC1EE;}
	.st52{fill:#50504F;}
	.st53{fill:#6D6D6C;}
	.st54{fill:#FFE2A8;}
	.st55{fill:#FFEDD2;}
	.st56{fill:#CE311D;}
	.st57{fill:#E84531;}
	.st58{fill:#1F7299;}
	.st59{fill:#158DC1;}
	.st60{fill:#F5B1A9;}
	.st61{fill:#F8D5D2;}
	.st62{fill:#0E8D38;}
	.st63{fill:#3A1213;}
	.st64{fill:#AEAEAE;}
	.st65{fill:#9D6514;}
	.st66{fill:#CBC9C9;}
	.st67{clip-path:url(#SVGID_3_);}
	.st68{fill:#A45E43;}
	.st69{fill:#CB654A;}
	.st70{opacity:0.5;fill:#CB654A;}
	.st71{opacity:0.8;fill:#CB654A;}
	.st72{opacity:0.6;fill:#CB654A;}
	.st73{opacity:0.4;fill:#CB654A;}
	.st74{opacity:0.2;fill:#CB654A;}
	.st75{opacity:0;fill:#CB654A;}
	.st76{fill:#603C1C;}
	.st77{opacity:0.4;fill:#A71B27;}
	.st78{fill:#298DBA;}
	.st79{fill:#AFB5BE;}
	.st80{fill:#3D3E32;}
	.st81{fill:#844B43;}
	.st82{fill:#1A1A1A;}
	.st83{fill:#F8CEAA;}
	.st84{fill:#025B9C;}
	.st85{fill:#5C676F;}
	.st86{fill:#F3BF30;}
	.st87{opacity:0.7;fill:#AFB5BE;}
	.st88{fill:#E4C777;}
	.st89{opacity:0.5;fill:#E4C777;}
	.st90{fill:#EEE2DE;}
	.st91{fill:#F08162;}
	.st92{fill:url(#SVGID_4_);}
</style>
<g id="Layer_1" class="st0">
	<rect x="-333.7" y="-190.8" class="st1" width="431.4" height="431.4"/>
</g>
<g id="Layer_2">
	<g>
		<path class="st3" d="M3.8,2.5C3.4,2.5,3.1,2.7,3,3C2.8,3.4,2.9,3.7,3.1,4c0.3,0.3,0.6,0.3,1,0.2C4.4,4,4.6,3.7,4.6,3.4
			C4.6,2.9,4.3,2.5,3.8,2.5L3.8,2.5z M3.8,3.9c-0.2,0-0.4-0.1-0.5-0.4c-0.1-0.2,0-0.5,0.1-0.6C3.5,2.8,3.8,2.7,4,2.8
			c0.2,0.1,0.4,0.3,0.4,0.5C4.4,3.7,4.1,3.9,3.8,3.9L3.8,3.9z M3.8,3.9"/>
		<g>
			<path class="st3" d="M6.7,2.9C6.6,2.9,6.6,2.9,6.7,2.9L6,2.9c0,0-0.1,0-0.1-0.1C5.9,2.6,5.8,2.4,5.7,2.2c0,0,0-0.1,0-0.1l0.4-0.4
				c0,0,0-0.1,0-0.1L5.6,1c0,0-0.1,0-0.1,0L5,1.4c0,0-0.1,0-0.1,0C4.7,1.3,4.5,1.2,4.3,1.2c0,0-0.1,0-0.1-0.1V0.5
				c0-0.1,0-0.1-0.1-0.1H3.4c-0.1,0-0.1,0-0.1,0.1v0.6c0,0,0,0.1-0.1,0.1C3,1.2,2.8,1.3,2.6,1.4c0,0-0.1,0-0.1,0L2.1,1
				C2.1,1,2,1,2,1L1.4,1.6c0,0,0,0.1,0,0.1l0.4,0.4c0,0,0,0.1,0,0.1C1.7,2.4,1.6,2.6,1.6,2.8c0,0,0,0.1-0.1,0.1H0.9
				c-0.1,0-0.1,0-0.1,0.1v0.8c0,0.1,0,0.1,0.1,0.1h0.6c0,0,0.1,0,0.1,0.1c0.1,0.2,0.1,0.4,0.2,0.6c0,0,0,0.1,0,0.1L1.4,5
				c0,0,0,0.1,0,0.1L2,5.7c0,0,0.1,0,0.1,0l0.4-0.4c0,0,0.1,0,0.1,0C2.8,5.4,3,5.5,3.2,5.5c0,0,0.1,0,0.1,0.1v0.6
				c0,0.1,0,0.1,0.1,0.1h0.8c0.1,0,0.1,0,0.1-0.1V5.6c0,0,0-0.1,0.1-0.1c0.2-0.1,0.4-0.1,0.6-0.2c0,0,0.1,0,0.1,0l0.4,0.4
				c0,0,0.1,0,0.1,0l0.6-0.6c0,0,0-0.1,0-0.1L5.7,4.6c0,0,0-0.1,0-0.1c0.1-0.2,0.2-0.4,0.2-0.6c0,0,0-0.1,0.1-0.1h0.6
				c0.1,0,0.1,0,0.1-0.1L6.7,2.9C6.7,2.9,6.7,2.9,6.7,2.9z M2.2,4.2c0,0-0.1,0-0.1,0C2,4,2,3.9,2,3.8C2,3.7,2,3.7,2,3.7
				c0.1,0,0.1,0,0.1,0.1c0,0.1,0.1,0.2,0.1,0.4C2.3,4.1,2.3,4.2,2.2,4.2z M2.1,3.1C2.1,3.2,2.1,3.2,2.1,3.1C2,3.2,2,3.2,2,3.2
				C2,3.2,1.9,3.1,1.9,3.1c0.1-0.8,0.7-1.4,1.5-1.5c0,0,0.1,0,0.1,0c0,0,0,0,0,0.1c0,0.1,0,0.1-0.1,0.1C2.8,1.9,2.2,2.4,2.1,3.1z
				 M4.1,4.3C3.8,4.4,3.4,4.3,3.1,4.1S2.7,3.4,2.9,3C3,2.6,3.4,2.4,3.8,2.4c0.5,0,1,0.4,1,1C4.7,3.8,4.5,4.1,4.1,4.3z"/>
		</g>
	</g>
</g>
</svg>
