<?xml version="1.0" encoding="utf-8"?>
<!-- Generator: Adobe Illustrator 22.0.0, SVG Export Plug-In . SVG Version: 6.00 Build 0)  -->
<svg version="1.1" xmlns="http://www.w3.org/2000/svg" xmlns:xlink="http://www.w3.org/1999/xlink" x="0px" y="0px"
	 viewBox="0 0 591 480" style="enable-background:new 0 0 591 480;" xml:space="preserve">
<style type="text/css">
	.st0{fill:#72B7E6;}
	.st1{fill:#63352F;}
	.st2{fill:#854942;}
	.st3{fill:#B16156;}
	.st4{fill:#1C5F84;}
	.st5{fill:#054663;}
	.st6{fill:#2A8EBA;}
	.st7{fill:#D3E9E2;}
	.st8{fill:#ABD7C8;}
	.st9{fill:#2B2414;}
	.st10{fill:#7EC4A9;}
	.st11{fill:#FFE29D;}
	.st12{fill:#EE809A;}
	.st13{fill:#FFD663;}
	.st14{fill:#C69A4B;}
	.st15{fill:#E8C785;}
</style>
<g id="Background">
</g>
<g id="Objects">
	<g>
		<path class="st0" d="M493.9,162.7c41.3,0,74.9-33.6,74.9-74.9c0-3.8,3-6.8,6.8-6.8c3.8,0,6.8,3,6.8,6.8
			c0,48.8-39.7,88.5-88.5,88.5h-18.1v-13.6H493.9z"/>
		<path class="st0" d="M412.3,162.7c-24.8,0-47.1,11-62.2,28.4l-8.3,2.3v9.1c-7.6,12.4-11.9,27-11.9,42.6c0,16.8,5,33,14.6,46.8
			l11.2-7.7c-8-11.5-12.2-25-12.2-39.1c0-10.5,2.4-20.4,6.6-29.3l7.2-2.9c0,0,0-9.1,1.1-10.4c12.6-15.9,32.1-26.1,53.9-26.1h18.1
			v-13.6L412.3,162.7L412.3,162.7z"/>
		<g>
			<path class="st1" d="M453.1,24.3c-3.8,0-6.8,3-6.8,6.8v18.1h13.6V31.1C459.9,27.4,456.8,24.3,453.1,24.3z"/>
			<path class="st1" d="M427,31.3c-3.3,1.9-4.4,6-2.5,9.3l9.1,15.7l11.8-6.8l-9.1-15.7C434.4,30.5,430.2,29.4,427,31.3z"/>
			<path class="st1" d="M407.8,50.3c-1.9,3.3-0.8,7.4,2.5,9.3l15.7,9.1l6.8-11.8l-15.7-9.1C413.9,46,409.7,47.1,407.8,50.3z"/>
			<path class="st1" d="M400.8,76.4c0,3.8,3,6.8,6.8,6.8h18.1V69.6h-18.1C403.8,69.6,400.8,72.6,400.8,76.4z"/>
			<path class="st1" d="M505.2,76.6c0-3.8-3-6.8-6.8-6.8h-18.1v13.6h18.1C502.1,83.4,505.2,80.4,505.2,76.6z"/>
			<path class="st1" d="M498.2,50.5c-1.9-3.3-6-4.4-9.3-2.5l-15.7,9.1l6.8,11.8l15.7-9.1C499,57.9,500.1,53.8,498.2,50.5z"/>
			<path class="st1" d="M479.2,31.4c-3.3-1.9-7.4-0.8-9.3,2.5l-9.1,15.7l11.8,6.8l9.1-15.7C483.5,37.4,482.4,33.3,479.2,31.4z"/>
		</g>
		<path class="st2" d="M453.1,35.7v81.7c22.6,0,40.8-18.3,40.8-40.8S475.6,35.7,453.1,35.7z"/>
		<path class="st3" d="M466.7,76.5c0-22.6-6.1-40.8-13.6-40.8c-22.6,0-40.8,18.3-40.8,40.8s18.3,40.8,40.8,40.8
			C460.6,117.3,466.7,99.1,466.7,76.5z"/>
		<path class="st4" d="M429,247.7l-13.6,0.8L426,431.9l-22.3,7.4c-3.6,1.2-5.5,5-4.3,8.6c1,2.9,3.6,4.7,6.5,4.7
			c0.7,0,1.4-0.1,2.2-0.4l27.2-9.1c2.9-1,4.8-3.8,4.6-6.8L429,247.7z"/>
		<g>
			<path class="st5" d="M477.1,247.7l13.6,0.8l-10.6,183.5l22.3,7.4c3.6,1.2,5.5,5,4.3,8.6c-1,2.9-3.6,4.7-6.5,4.7
				c-0.7,0-1.4-0.1-2.2-0.4l-27.2-9.1c-2.9-1-4.8-3.8-4.6-6.8L477.1,247.7z"/>
			<path class="st5" d="M453.1,226.2v68.1c22.6,0,40.8-18.3,40.8-40.8L453.1,226.2z"/>
		</g>
		<path class="st4" d="M466.7,253.5l-27.2-27.2l-27.2,27.2c0,22.6,18.3,40.8,40.8,40.8C460.6,294.3,466.7,276,466.7,253.5z"/>
		<path class="st6" d="M475.8,144.6h-27.2l18.1,108.9h27.2v-90.7C493.9,152.7,485.8,144.6,475.8,144.6z"/>
		<path class="st0" d="M448.6,144.6h-18.1c-10,0-18.1,8.1-18.1,18.1v90.7h54.4v-90.7C466.7,152.7,458.6,144.6,448.6,144.6z"/>
		<path class="st6" d="M453.1,233c-3.8,0-6.8-3-6.8-6.8v-81.7c0-3.8,3-6.8,6.8-6.8s6.8,3,6.8,6.8v81.7
			C459.9,230,456.8,233,453.1,233z"/>
	</g>
	<g>
		<path class="st7" d="M96.3,163.3c-41.3,0-74.9-33.6-74.9-74.9c0-3.8-3-6.8-6.8-6.8s-6.8,3-6.8,6.8c0,48.8,39.7,88.5,88.5,88.5
			h18.1v-13.6L96.3,163.3L96.3,163.3z"/>
		<g>
			<path class="st8" d="M240.1,216.3c4.2,8.9,6.6,18.8,6.6,29.3c0,14-4.2,27.5-12.2,39.1c-2.1,3.1-1.4,7.3,1.7,9.5
				c1.2,0.8,2.5,1.2,3.9,1.2c2.2,0,4.3-1,5.6-2.9c9.5-13.8,14.6-30,14.6-46.8c0-15.6-4.4-30.2-11.9-42.6
				C245.1,207.1,242.3,211.5,240.1,216.3z"/>
			<path class="st8" d="M177.9,163.3h-18.1v13.6h18.1c21.8,0,41.3,10.2,53.9,26.1c2.4-4,5.2-7.8,8.3-11.3
				C225,174.3,202.7,163.3,177.9,163.3z"/>
		</g>
		<path d="M205.1,84v-7c0-37.5-30.5-68.1-68.1-68.1l40.8,108.9h18.1c10,0,18.1-8.1,18.1-18.1C214.2,93,210.6,87.2,205.1,84z"/>
		<path class="st9" d="M137.1,9C99.6,9,69,39.5,69,77.1v7c-5.4,3.1-9.1,9-9.1,15.7c0,10,8.1,18.1,18.1,18.1h99.8V77.1
			C177.9,39.5,159.6,9,137.1,9z"/>
		<path class="st8" d="M159.8,145.1l-22.7,0.6L114.4,254h63.5v-90.7C177.9,153.2,169.8,145.1,159.8,145.1z"/>
		<path class="st7" d="M114.4,145.1c-10,0-18.1,8.1-18.1,18.1V254h40.8V145.1L114.4,145.1L114.4,145.1z"/>
		<path class="st2" d="M189,441.1l-23.8-19.9l8.5-147.5l-13.6-0.8l-10,173c-0.2,3.8,2.6,7,6.4,7.2c0.1,0,0.3,0,0.4,0
			c3.6,0,6.6-2.8,6.8-6.4l0.5-8.6l16.1,13.4c1.3,1.1,2.8,1.6,4.4,1.6c2,0,3.9-0.8,5.2-2.4C192.3,447.8,191.9,443.6,189,441.1z"/>
		<path class="st3" d="M124.8,446l-10-173l-13.6,0.8l8.5,147.5l-23.8,19.9c-2.9,2.4-3.3,6.7-0.9,9.6c1.3,1.6,3.3,2.4,5.2,2.4
			c1.5,0,3.1-0.5,4.4-1.6l16.1-13.4l0.5,8.6c0.2,3.6,3.2,6.4,6.8,6.4c0.1,0,0.3,0,0.4,0C122.2,453,125.1,449.7,124.8,446z"/>
		<path class="st10" d="M137.1,138.9c-3.8,0-6.8,3-6.8,6.8v99.2h13.6v-99.2C143.9,141.9,140.8,138.9,137.1,138.9z"/>
		<path class="st2" d="M175.4,63.3l-25.7,0.2L137.3,118c22.6-0.2,40.7-18.6,40.5-41.1C177.8,72.1,176.9,67.6,175.4,63.3z"/>
		<path class="st3" d="M150.7,77.1c0-4.8-0.3-9.4-0.8-13.6h-12.8c-11.9,0-21.9-7.6-25.7-18.1c-9.2,7.5-15.2,18.9-15.2,31.8
			c0,22.6,18.3,40.8,40.8,40.8C144.6,117.9,150.7,99.6,150.7,77.1z"/>
		<g>
			<path class="st10" d="M177.9,244.9h-27.2l13.6,81.7h27.2v-45.7C191.5,267.1,186.4,254.5,177.9,244.9z"/>
			<path class="st8" d="M150.7,244.9H96.3c-8.5,9.6-13.6,22.2-13.6,36v45.7h81.7v-45.7C164.3,267.1,159.2,254.5,150.7,244.9z"/>
		</g>
	</g>
	<g>
		<path class="st2" d="M298.5,378.2h-17.6c-11.7,0-21.1-9.5-21.1-21.1v-33.6c0-11.7,9.5-21.1,21.1-21.1h17.6
			c11.7,0,21.1,9.5,21.1,21.1V357C319.6,368.7,310.1,378.2,298.5,378.2z"/>
		<g>
			<path class="st1" d="M291.1,241.3c-2,0-3.6,1.6-3.6,3.6v9.5h7.1v-9.5C294.6,242.9,293,241.3,291.1,241.3z"/>
			<path class="st1" d="M277.4,244.9c-1.7,1-2.3,3.2-1.3,4.9l4.7,8.2l6.2-3.6l-4.7-8.2C281.3,244.5,279.1,244,277.4,244.9z"/>
			<path class="st1" d="M267.4,254.9c-1,1.7-0.4,3.9,1.3,4.9l8.2,4.7l3.6-6.2l-8.2-4.7C270.6,252.6,268.4,253.2,267.4,254.9z"/>
			<path class="st1" d="M263.7,268.6c0,2,1.6,3.6,3.6,3.6h9.5V265h-9.5C265.3,265,263.7,266.6,263.7,268.6z"/>
			<path class="st1" d="M318.3,268.7c0-2-1.6-3.6-3.6-3.6h-9.5v7.1h9.5C316.7,272.2,318.3,270.6,318.3,268.7z"/>
			<path class="st1" d="M314.7,255c-1-1.7-3.2-2.3-4.9-1.3l-8.2,4.7l3.6,6.2l8.2-4.7C315.1,258.9,315.7,256.7,314.7,255z"/>
			<path class="st1" d="M304.7,245c-1.7-1-3.9-0.4-4.9,1.3l-4.7,8.2l6.2,3.6l4.7-8.2C307,248.2,306.4,246,304.7,245z"/>
		</g>
		<g>
			<path class="st11" d="M238.8,300c-2.2-4.7-3.4-9.8-3.4-15.3c0-7.3,2.2-14.4,6.4-20.4c1.1-1.6,0.7-3.8-0.9-5
				c-0.6-0.4-1.3-0.6-2-0.6c-1.1,0-2.2,0.5-2.9,1.5c-5,7.2-7.6,15.7-7.6,24.5c0,8.2,2.3,15.8,6.2,22.3
				C236.1,304.8,237.6,302.5,238.8,300z"/>
			<path class="st11" d="M271.3,327.8h9.5v-7.1h-9.5c-11.4,0-21.6-5.4-28.2-13.7c-1.3,2.1-2.7,4.1-4.3,5.9
				C246.7,322,258.3,327.8,271.3,327.8z"/>
		</g>
		<g>
			<path class="st11" d="M350.9,300c2.2-4.7,3.4-9.8,3.4-15.3c0-7.3-2.2-14.4-6.4-20.4c-1.1-1.6-0.7-3.8,0.9-5
				c0.6-0.4,1.3-0.6,2-0.6c1.1,0,2.2,0.5,2.9,1.5c5,7.2,7.6,15.7,7.6,24.5c0,8.2-2.3,15.8-6.2,22.3
				C353.6,304.8,352.1,302.5,350.9,300z"/>
			<path class="st11" d="M318.4,327.8h-9.5v-7.1h9.5c11.4,0,21.6-5.4,28.2-13.7c1.3,2.1,2.7,4.1,4.3,5.9
				C343,322,331.4,327.8,318.4,327.8z"/>
		</g>
		<path class="st2" d="M278.2,364.5l-7.1,0.4l5.5,96l-11.7,3.9c-1.9,0.6-2.9,2.6-2.3,4.5c0.5,1.5,1.9,2.4,3.4,2.4
			c0.4,0,0.8-0.1,1.1-0.2l14.2-4.7c1.5-0.5,2.5-2,2.4-3.6L278.2,364.5z"/>
		<g>
			<path class="st2" d="M303.4,364.5l7.1,0.4l-5.5,96l11.7,3.9c1.9,0.6,2.9,2.6,2.3,4.5c-0.5,1.5-1.9,2.4-3.4,2.4
				c-0.4,0-0.8-0.1-1.1-0.2l-14.2-4.7c-1.5-0.5-2.5-2-2.4-3.6L303.4,364.5z"/>
			<path class="st2" d="M290.8,353.3v35.6c11.8,0,21.4-9.6,21.4-21.4L290.8,353.3z"/>
		</g>
		<path class="st12" d="M298,367.5l-14.2-14.2l-14.2,14.2c0,11.8,9.6,21.4,21.4,21.4C294.8,388.9,298,379.3,298,367.5z"/>
		<path class="st13" d="M302.7,310.5h-14.2l9.5,57h14.2V320C312.2,314.8,307.9,310.5,302.7,310.5z"/>
		<path class="st11" d="M288.5,310.5H279c-5.2,0-9.5,4.3-9.5,9.5v47.5H298V320C298,314.8,293.7,310.5,288.5,310.5z"/>
		<g>
			<path class="st2" d="M291.1,253.4v42.7c11.8,0,21.4-9.6,21.4-21.4C312.4,263,302.9,253.4,291.1,253.4z"/>
			<path class="st3" d="M298.2,274.8c0-11.8-3.2-21.4-7.1-21.4c-11.8,0-21.4,9.6-21.4,21.4c0,11.8,9.6,21.4,21.4,21.4
				C295,296.2,298.2,286.6,298.2,274.8z"/>
		</g>
		<g>
			<path class="st14" d="M312.4,359.3h-14.2l7.1,42.7h14.2v-23.9C319.6,370.9,316.9,364.3,312.4,359.3z"/>
			<path class="st15" d="M298.2,359.3h-28.5c-4.4,5-7.1,11.6-7.1,18.8V402h42.7v-23.9C305.3,370.9,302.6,364.3,298.2,359.3z"/>
		</g>
		<path class="st2" d="M276.8,347.3v-26.8c-0.5-15.7-9.8-10.6-9.8-10.6v4.7c5.9-5.4,6.3,6,6.3,6v26.8c0,0,0.2,8.1-6.3,7.1v3.5
			C266.9,357.9,276.8,359.3,276.8,347.3z"/>
		<path class="st2" d="M303.5,347.3v-26.8c0.5-15.7,9.8-10.6,9.8-10.6v4.7c-5.9-5.4-6.3,6-6.3,6v26.8c0,0-0.2,8.1,6.3,7.1v3.5
			C313.3,357.9,303.5,359.3,303.5,347.3z"/>
	</g>
</g>
</svg>
